<svg xmlns="http://www.w3.org/2000/svg" viewBox="0 0 512 512">
  <!-- Dark background -->
  <rect width="512" height="512" rx="80" fill="#1a0808"/>
  <!-- Film strip left -->
  <rect x="40" y="80" width="30" height="352" rx="6" fill="#3d0f0f"/>
  <rect x="44" y="100" width="22" height="28" rx="3" fill="#0a0a0a"/>
  <rect x="44" y="148" width="22" height="28" rx="3" fill="#0a0a0a"/>
  <rect x="44" y="196" width="22" height="28" rx="3" fill="#0a0a0a"/>
  <rect x="44" y="244" width="22" height="28" rx="3" fill="#0a0a0a"/>
  <rect x="44" y="292" width="22" height="28" rx="3" fill="#0a0a0a"/>
  <rect x="44" y="340" width="22" height="28" rx="3" fill="#0a0a0a"/>
  <rect x="44" y="388" width="22" height="28" rx="3" fill="#0a0a0a"/>
  <!-- Film strip right -->
  <rect x="442" y="80" width="30" height="352" rx="6" fill="#3d0f0f"/>
  <rect x="446" y="100" width="22" height="28" rx="3" fill="#0a0a0a"/>
  <rect x="446" y="148" width="22" height="28" rx="3" fill="#0a0a0a"/>
  <rect x="446" y="196" width="22" height="28" rx="3" fill="#0a0a0a"/>
  <rect x="446" y="244" width="22" height="28" rx="3" fill="#0a0a0a"/>
  <rect x="446" y="292" width="22" height="28" rx="3" fill="#0a0a0a"/>
  <rect x="446" y="340" width="22" height="28" rx="3" fill="#0a0a0a"/>
  <rect x="446" y="388" width="22" height="28" rx="3" fill="#0a0a0a"/>
  <!-- Heart shape (center) -->
  <path d="M256 370 C256 370 130 290 130 200 C130 160 160 130 200 130 C225 130 248 145 256 160 C264 145 287 130 312 130 C352 130 382 160 382 200 C382 290 256 370 256 370Z" fill="#e63946"/>
  <!-- Play button inside heart -->
  <polygon points="228,185 228,255 300,220" fill="white" opacity="0.9"/>
</svg>
